<?xml version="1.0" standalone="no"?>
<!DOCTYPE svg PUBLIC "-//W3C//DTD SVG 20010904//EN"
 "http://www.w3.org/TR/2001/REC-SVG-20010904/DTD/svg10.dtd">
<svg version="1.0" xmlns="http://www.w3.org/2000/svg"
 width="512.000000pt" height="512.000000pt" viewBox="0 0 512.000000 512.000000"
 preserveAspectRatio="xMidYMid meet">

<g transform="translate(0.000000,512.000000) scale(0.100000,-0.100000)"
fill="#000000" stroke="none">
<path d="M528 5104 c-83 -20 -148 -56 -217 -120 -69 -63 -124 -163 -141 -253
-14 -74 -14 -3308 0 -3382 17 -90 72 -190 141 -253 33 -31 83 -68 110 -81 103
-53 128 -55 747 -55 540 0 572 -1 572 -18 0 -36 -43 -170 -80 -249 -51 -109
-129 -221 -212 -304 l-67 -68 -160 -3 c-143 -3 -163 -5 -187 -24 -44 -32 -66
-68 -71 -116 -7 -58 15 -108 63 -144 l37 -29 1513 0 c1512 0 1513 0 1540 21
47 35 67 70 72 126 3 44 0 59 -20 87 -49 72 -60 76 -254 79 l-175 3 -74 75
c-139 140 -256 357 -281 519 l-6 45 569 0 c337 0 592 4 624 10 185 34 345 196
380 383 6 33 9 145 7 261 l-3 203 -29 37 c-54 71 132 66 -2271 66 l-2175 0 2
1389 c3 1386 3 1390 24 1417 11 15 33 37 48 48 l27 21 1979 0 1979 0 27 -21
c15 -11 37 -33 48 -48 21 -27 21 -35 26 -1204 4 -923 8 -1182 18 -1199 7 -12
29 -35 49 -50 52 -40 134 -40 185 -1 73 56 68 -35 68 1251 0 743 -4 1173 -10
1208 -35 184 -196 345 -379 379 -35 6 -750 10 -2020 9 -1641 -1 -1975 -3
-2023 -15z m4110 -3613 c-3 -118 -12 -141 -72 -185 l-27 -21 -1979 0 -1979 0
-27 21 c-60 44 -69 67 -72 185 l-4 109 2082 0 2082 0 -4 -109z m-1572 -612
c28 -161 105 -354 198 -492 l46 -67 -750 0 -750 0 46 68 c91 134 169 327 195
479 6 37 13 74 15 81 3 10 107 12 496 10 l492 -3 12 -76z"/>
</g>
</svg>
